        <svg width="65" height="54" viewBox="0 0 65 54" fill="none" xmlns="http://www.w3.org/2000/svg">
          <path d="M43.1663 32.9259L32.4997 22.2593L21.833 32.9259L23.7293 34.5852L31.3145 27V53.074H33.6849V27L41.27 34.5852L43.1663 32.9259Z" fill="url(#paint0_linear_131_65)"/><path d="M57.1519 18.4665C55.9668 12.5407 50.5148 8.03689 44.3519 8.03689C42.2185 8.03689 40.3222 8.51097 38.663 9.45912C35.8187 4.2443 30.3668 0.925781 24.2038 0.925781C14.9594 0.925781 7.61124 8.27399 7.61124 17.5184C7.61124 17.7555 7.61124 18.2294 7.61124 18.4665C3.34444 20.3629 0.5 24.3925 0.5 29.3702C0.5 36.0073 5.71482 41.2221 12.3519 41.2221H28.9444V38.8517H12.3519C7.13704 38.8517 2.87037 34.585 2.87037 29.3702C2.87037 24.8666 5.95179 21.0739 10.2186 20.1258C9.98148 19.1777 9.98148 18.4665 9.98148 17.5184C9.98148 9.69621 16.3815 3.29615 24.2037 3.29615C30.3667 3.29615 35.5815 7.32584 37.7149 12.7776C39.6112 11.3554 41.9815 10.4073 44.3519 10.4073C50.0408 10.4073 54.5444 14.6739 55.0185 20.1258C59.0482 21.074 62.1296 24.8666 62.1296 29.3702C62.1296 34.585 57.863 38.8517 52.6481 38.8517H36.0556V41.2221H52.6481C59.2852 41.2221 64.5 36.0073 64.5 29.3702C64.5 24.3925 61.4186 20.1258 57.1519 18.4665Z" fill="url(#paint1_linear_131_65)"/><defs><linearGradient id="paint0_linear_131_65" x1="32.4997" y1="22.2593" x2="32.4997" y2="53.074" gradientUnits="userSpaceOnUse"><stop stop-color="#FF2E00"/><stop offset="1" stop-color="#EA580C"/></linearGradient><linearGradient id="paint1_linear_131_65" x1="32.5" y1="0.925781" x2="32.5" y2="41.2221" gradientUnits="userSpaceOnUse"><stop stop-color="#FF2E00"/><stop offset="1" stop-color="#EA580C"/></linearGradient></defs>
        </svg>
