<svg width="25" height="26" viewBox="0 0 25 26" fill="none" xmlns="http://www.w3.org/2000/svg">
    <path d="M16.2155 13.0001L10.9924 7.44773C10.8119 7.25649 10.5697 7.14546 10.3149 7.13719C10.0602 7.12892 9.81206 7.22404 9.6209 7.40322C9.42975 7.58239 9.30992 7.8322 9.28575 8.1019C9.26158 8.3716 9.33489 8.64096 9.49078 8.85529L9.57404 8.95552L13.3777 13.0001L9.57404 17.0447C9.40133 17.2283 9.29758 17.4726 9.28225 17.7317C9.26692 17.9909 9.34107 18.2471 9.49078 18.4522L9.57404 18.5525C9.74676 18.7361 9.97657 18.8463 10.2203 18.8626C10.4641 18.8789 10.7051 18.8001 10.8981 18.641L10.9924 18.5525L16.2155 13.0001Z" fill="#F0F0F0"/>
</svg>
