<svg width="20" height="20" viewBox="0 0 24 25" fill="none" xmlns="http://www.w3.org/2000/svg">
    <path d="M10.912 16.4667H11.037C11.2924 16.4667 11.5373 16.3648 11.7179 16.1835C11.8985 16.0022 12 15.7563 12 15.4998V13.4547H10V15.551C10 16.057 10.408 16.4667 10.912 16.4667ZM14.912 19.4787H15.037C15.2924 19.4787 15.5373 19.3768 15.7179 19.1955C15.8985 19.0142 16 18.7683 16 18.5118V13.4547H14V18.563C14 19.0691 14.408 19.4787 14.912 19.4787ZM18.912 16.4667H19.037C19.1635 16.4667 19.2887 16.4417 19.4055 16.3931C19.5224 16.3445 19.6285 16.2733 19.7179 16.1835C19.8074 16.0937 19.8783 15.9871 19.9267 15.8698C19.9751 15.7525 20 15.6268 20 15.4998V13.4547H18V15.551C18 16.057 18.408 16.4667 18.912 16.4667ZM21 11.4467H9V9.43866C9 8.90611 9.21071 8.39536 9.58579 8.01879C9.96086 7.64221 10.4696 7.43066 11 7.43066H14V4.41865H5V21.4867C5 21.753 4.89464 22.0083 4.70711 22.1966C4.51957 22.3849 4.26522 22.4907 4 22.4907C3.73478 22.4907 3.48043 22.3849 3.29289 22.1966C3.10536 22.0083 3 21.753 3 21.4867V4.41865C3 3.88609 3.21071 3.37535 3.58579 2.99878C3.96086 2.6222 4.46957 2.41064 5 2.41064H14C14.5304 2.41064 15.0391 2.6222 15.4142 2.99878C15.7893 3.37535 16 3.88609 16 4.41865V7.43066H19C19.5304 7.43066 20.0391 7.64221 20.4142 8.01879C20.7893 8.39536 21 8.90611 21 9.43866V11.4467Z" fill="#F0F0F0"/>
</svg>
