<svg width="22" height="22" viewBox="0 0 28 24" fill="none" xmlns="http://www.w3.org/2000/svg">
    <path d="M3.33333 17.5V3.5C3.33333 3.19058 3.21042 2.89383 2.99162 2.67504C2.77283 2.45625 2.47609 2.33333 2.16667 2.33333C1.85725 2.33333 1.5605 2.45625 1.34171 2.67504C1.12292 2.89383 1 3.19058 1 3.5V18.6667C1 19.2855 1.24583 19.879 1.68342 20.3166C2.121 20.7542 2.71449 21 3.33333 21H18.5C18.8094 21 19.1062 20.8771 19.325 20.6583C19.5438 20.4395 19.6667 20.1428 19.6667 19.8333C19.6667 19.5239 19.5438 19.2272 19.325 19.0084C19.1062 18.7896 18.8094 18.6667 18.5 18.6667H4.5C4.19058 18.6667 3.89383 18.5438 3.67504 18.325C3.45625 18.1062 3.33333 17.8094 3.33333 17.5ZM19.9583 0C21.0853 0 22 0.914667 22 2.04167V14.2917C22 14.8331 21.7849 15.3525 21.402 15.7353C21.0191 16.1182 20.4998 16.3333 19.9583 16.3333H7.70833C7.16685 16.3333 6.64754 16.1182 6.26466 15.7353C5.88177 15.3525 5.66667 14.8331 5.66667 14.2917V2.04167C5.66667 0.914667 6.58133 0 7.70833 0H19.9583ZM18.5 2.33333H9.16667C8.85725 2.33333 8.5605 2.45625 8.34171 2.67504C8.12292 2.89383 8 3.19058 8 3.5V12.8333C8 13.1428 8.12292 13.4395 8.34171 13.6583C8.5605 13.8771 8.85725 14 9.16667 14H18.5C18.8094 14 19.1062 13.8771 19.325 13.6583C19.5438 13.4395 19.6667 13.1428 19.6667 12.8333V3.5C19.6667 3.19058 19.5438 2.89383 19.325 2.67504C19.1062 2.45625 18.8094 2.33333 18.5 2.33333Z" fill="#F0F0F0"/>
</svg>
