<svg width="20" height="20" viewBox="0 0 24 25" fill="none" xmlns="http://www.w3.org/2000/svg">
    <path d="M21 14.3307H3V13.3266C3 12.5224 3.312 11.7654 3.879 11.1972C4.15679 10.9165 4.4873 10.6939 4.85139 10.5424C5.21547 10.3909 5.60589 10.3135 6 10.3146H18C18.801 10.3146 19.555 10.6279 20.121 11.1972C20.688 11.7654 21 12.5224 21 13.3266V14.3307ZM21 17.3427H3V16.3387H21V17.3427ZM5 8.30664V6.29863C5 5.74542 5.449 5.29463 6 5.29463H10C10.551 5.29463 11 5.74542 11 6.29863V8.30664H5ZM13 6.29863C13 5.74542 13.449 5.29463 14 5.29463H18C18.551 5.29463 19 5.74542 19 6.29863V8.30664H13V6.29863ZM21 9.31064V6.29863C21 5.4998 20.6839 4.73368 20.1213 4.16882C19.5587 3.60396 18.7957 3.28662 18 3.28662H14C13.232 3.28662 12.53 3.57778 12 4.05368C11.4503 3.55916 10.7381 3.28598 10 3.28662H6C5.20435 3.28662 4.44129 3.60396 3.87868 4.16882C3.31607 4.73368 3 5.4998 3 6.29863V9.31064C2.37856 9.7778 1.87421 10.3841 1.52702 11.0812C1.17983 11.7784 0.999379 12.5472 1 13.3266V19.3507C1 19.8832 1.21072 20.394 1.58579 20.7705C1.96086 21.1471 2.46957 21.3587 3 21.3587H4V19.3507H20V21.3587H21C21.5304 21.3587 22.0391 21.1471 22.4142 20.7705C22.7893 20.394 23 19.8832 23 19.3507V13.3266C23.0006 12.5472 22.8202 11.7784 22.473 11.0812C22.1258 10.3841 21.6214 9.7778 21 9.31064Z" fill="#0d0d0d"/>
</svg>
