<svg width="20" height="20" viewBox="0 0 24 26" fill="none" xmlns="http://www.w3.org/2000/svg">
    <path d="M15.843 2.97998C16.5309 2.98003 17.198 3.21747 17.7323 3.6525C18.2666 4.08753 18.6358 4.69372 18.778 5.36951L19.556 9.0552C20.2432 9.18533 20.8636 9.55244 21.3099 10.0931C21.7561 10.6337 22.0002 11.3139 22 12.016V21.052C22 21.5846 21.7893 22.0953 21.4142 22.4719C21.0391 22.8485 20.5304 23.06 20 23.06H19C18.7348 23.06 18.4804 22.9543 18.2929 22.766C18.1054 22.5777 18 22.3223 18 22.056V20.048H6V22.056C6 22.3223 5.89464 22.5777 5.70711 22.766C5.51957 22.9543 5.26522 23.06 5 23.06H4C3.46957 23.06 2.96086 22.8485 2.58579 22.4719C2.21071 22.0953 2 21.5846 2 21.052V12.016C1.99977 11.3139 2.24389 10.6337 2.69014 10.0931C3.1364 9.55244 3.75676 9.18533 4.444 9.0552L5.222 5.3685C5.36438 4.69291 5.73365 4.08694 6.26797 3.65211C6.80229 3.21728 7.4692 2.97999 8.157 2.97998H15.843ZM19 11.012H5C4.73478 11.012 4.48043 11.1178 4.29289 11.3061C4.10536 11.4944 4 11.7497 4 12.016V18.04H20V12.016C20 11.7497 19.8946 11.4944 19.7071 11.3061C19.5196 11.1178 19.2652 11.012 19 11.012ZM16.5 13.02C16.8978 13.02 17.2794 13.1787 17.5607 13.4611C17.842 13.7435 18 14.1266 18 14.526C18 14.9254 17.842 15.3085 17.5607 15.5909C17.2794 15.8733 16.8978 16.032 16.5 16.032C16.1022 16.032 15.7206 15.8733 15.4393 15.5909C15.158 15.3085 15 14.9254 15 14.526C15 14.1266 15.158 13.7435 15.4393 13.4611C15.7206 13.1787 16.1022 13.02 16.5 13.02ZM7.5 13.02C7.89782 13.02 8.27936 13.1787 8.56066 13.4611C8.84196 13.7435 9 14.1266 9 14.526C9 14.9254 8.84196 15.3085 8.56066 15.5909C8.27936 15.8733 7.89782 16.032 7.5 16.032C7.10218 16.032 6.72064 15.8733 6.43934 15.5909C6.15804 15.3085 6 14.9254 6 14.526C6 14.1266 6.15804 13.7435 6.43934 13.4611C6.72064 13.1787 7.10218 13.02 7.5 13.02ZM15.843 4.98799H8.157L8.04 4.99501C7.83214 5.01945 7.63716 5.10874 7.48251 5.25032C7.32787 5.39189 7.22137 5.5786 7.178 5.78416L6.5 9.004H17.5L16.822 5.78416L16.791 5.67071C16.724 5.47162 16.5965 5.29864 16.4264 5.17616C16.2564 5.05368 16.0523 4.98786 15.843 4.98799Z" fill="#0d0d0d"/>
</svg>
